HIERARCHY
ROOT Hips
{
	OFFSET 8.91173 92.52490 -21.95620
	CHANNELS 6 Xposition Yposition Zposition Zrotation Xrotation Yrotation
	JOINT Spine
	{
		OFFSET 0.00000 14.09320 -1.51142
		CHANNELS 3 Zrotation Xrotation Yrotation
		JOINT Spine1
		{
			OFFSET 0.00000 8.69660 0.00000
			CHANNELS 3 Zrotation Xrotation Yrotation
			JOINT Spine2
			{
				OFFSET 0.00000 8.69660 0.00000
				CHANNELS 3 Zrotation Xrotation Yrotation
				JOINT Spine3
				{
					OFFSET 0.00000 8.69660 0.00000
					CHANNELS 3 Zrotation Xrotation Yrotation
					JOINT Neck
					{
						OFFSET 0.00000 11.18130 1.11813
						CHANNELS 3 Zrotation Xrotation Yrotation
						JOINT Neck1
						{
							OFFSET 0.00000 5.70631 0.00000
							CHANNELS 3 Zrotation Xrotation Yrotation
							JOINT Head
							{
								OFFSET 0.00000 5.70631 0.00000
								CHANNELS 3 Zrotation Xrotation Yrotation
								End site
								{
									OFFSET 0.00000 9.71257 0.00000
								}
							}
						}
					}
					JOINT RightShoulder
					{
						OFFSET 0.00000 7.98668 5.19711
						CHANNELS 3 Zrotation Xrotation Yrotation
						JOINT RightArm
						{
							OFFSET 0.00000 18.31580 0.00000
							CHANNELS 3 Zrotation Xrotation Yrotation
							JOINT RightForeArm
							{
								OFFSET 0.00000 28.87420 0.00000
								CHANNELS 3 Zrotation Xrotation Yrotation
								JOINT RightHand
								{
									OFFSET 0.00000 23.87720 0.00000
									CHANNELS 3 Zrotation Xrotation Yrotation
									JOINT RightHandThumb1
									{
										OFFSET -2.41094 4.67063 3.47303
										CHANNELS 3 Zrotation Xrotation Yrotation
										JOINT RightHandThumb2
										{
											OFFSET 0.00000 3.95207 0.00000
											CHANNELS 3 Zrotation Xrotation Yrotation
											JOINT RightHandThumb3
											{
												OFFSET 0.00000 2.15568 0.00000
												CHANNELS 3 Zrotation Xrotation Yrotation
												End site
												{
													OFFSET 0.00000 1.91616 0.00000
												}
											}
										}
									}
									JOINT RightHandIndex1
									{
										OFFSET 0.00000 12.45500 2.51496
										CHANNELS 3 Zrotation Xrotation Yrotation
										JOINT RightHandIndex2
										{
											OFFSET 0.00000 4.79039 0.00000
											CHANNELS 3 Zrotation Xrotation Yrotation
											JOINT RightHandIndex3
											{
												OFFSET 0.00000 2.63472 0.00000
												CHANNELS 3 Zrotation Xrotation Yrotation
												End site
												{
													OFFSET 0.00000 1.91616 0.00000
												}
											}
										}
									}
									JOINT RightHandMiddle1
									{
										OFFSET 0.00000 12.45500 -0.07984
										CHANNELS 3 Zrotation Xrotation Yrotation
										JOINT RightHandMiddle2
										{
											OFFSET 0.00000 5.38919 0.00000
											CHANNELS 3 Zrotation Xrotation Yrotation
											JOINT RightHandMiddle3
											{
												OFFSET 0.00000 3.11376 0.00000
												CHANNELS 3 Zrotation Xrotation Yrotation
												End site
												{
													OFFSET 0.00000 2.03592 0.00000
												}
											}
										}
									}
									JOINT RightHandRing1
									{
										OFFSET 0.00000 11.07780 -2.67464
										CHANNELS 3 Zrotation Xrotation Yrotation
										JOINT RightHandRing2
										{
											OFFSET 0.00000 4.91015 0.00000
											CHANNELS 3 Zrotation Xrotation Yrotation
											JOINT RightHandRing3
											{
												OFFSET 0.00000 3.11376 0.00000
												CHANNELS 3 Zrotation Xrotation Yrotation
												End site
												{
													OFFSET 0.00000 2.03592 0.00000
												}
											}
										}
									}
									JOINT RightHandPinky1
									{
										OFFSET 0.00000 9.70055 -5.26943
										CHANNELS 3 Zrotation Xrotation Yrotation
										JOINT RightHandPinky2
										{
											OFFSET 0.00000 3.95207 0.00000
											CHANNELS 3 Zrotation Xrotation Yrotation
											JOINT RightHandPinky3
											{
												OFFSET 0.00000 2.15568 0.00000
												CHANNELS 3 Zrotation Xrotation Yrotation
												End site
												{
													OFFSET 0.00000 1.91616 0.00000
												}
											}
										}
									}
								}
							}
						}
					}
					JOINT LeftShoulder
					{
						OFFSET 0.00000 7.98668 5.19711
						CHANNELS 3 Zrotation Xrotation Yrotation
						JOINT LeftArm
						{
							OFFSET 0.00000 18.31580 0.00000
							CHANNELS 3 Zrotation Xrotation Yrotation
							JOINT LeftForeArm
							{
								OFFSET 0.00000 28.87420 0.00000
								CHANNELS 3 Zrotation Xrotation Yrotation
								JOINT LeftHand
								{
									OFFSET 0.00000 23.87720 0.00000
									CHANNELS 3 Zrotation Xrotation Yrotation
									JOINT LeftHandThumb1
									{
										OFFSET 2.41094 4.67063 3.47303
										CHANNELS 3 Zrotation Xrotation Yrotation
										JOINT LeftHandThumb2
										{
											OFFSET 0.00000 3.95207 0.00000
											CHANNELS 3 Zrotation Xrotation Yrotation
											JOINT LeftHandThumb3
											{
												OFFSET 0.00000 2.15568 0.00000
												CHANNELS 3 Zrotation Xrotation Yrotation
												End site
												{
													OFFSET 0.00000 1.60000 0.00000
												}
											}
										}
									}
									JOINT LeftHandIndex1
									{
										OFFSET 0.00000 12.45500 2.51496
										CHANNELS 3 Zrotation Xrotation Yrotation
										JOINT LeftHandIndex2
										{
											OFFSET 0.00000 4.79039 0.00000
											CHANNELS 3 Zrotation Xrotation Yrotation
											JOINT LeftHandIndex3
											{
												OFFSET 0.00000 2.63472 0.00000
												CHANNELS 3 Zrotation Xrotation Yrotation
												End site
												{
													OFFSET 0.00000 1.91616 0.00000
												}
											}
										}
									}
									JOINT LeftHandMiddle1
									{
										OFFSET 0.00000 12.45500 -0.07984
										CHANNELS 3 Zrotation Xrotation Yrotation
										JOINT LeftHandMiddle2
										{
											OFFSET 0.00000 5.38919 0.00000
											CHANNELS 3 Zrotation Xrotation Yrotation
											JOINT LeftHandMiddle3
											{
												OFFSET 0.00000 3.11376 0.00000
												CHANNELS 3 Zrotation Xrotation Yrotation
												End site
												{
													OFFSET 0.00000 2.03592 0.00000
												}
											}
										}
									}
									JOINT LeftHandRing1
									{
										OFFSET 0.00000 11.07780 -2.67464
										CHANNELS 3 Zrotation Xrotation Yrotation
										JOINT LeftHandRing2
										{
											OFFSET 0.00000 4.91015 0.00000
											CHANNELS 3 Zrotation Xrotation Yrotation
											JOINT LeftHandRing3
											{
												OFFSET 0.00000 3.11376 0.00000
												CHANNELS 3 Zrotation Xrotation Yrotation
												End site
												{
													OFFSET 0.00000 2.03592 0.00000
												}
											}
										}
									}
									JOINT LeftHandPinky1
									{
										OFFSET 0.00000 9.70055 -5.26943
										CHANNELS 3 Zrotation Xrotation Yrotation
										JOINT LeftHandPinky2
										{
											OFFSET 0.00000 3.95207 0.00000
											CHANNELS 3 Zrotation Xrotation Yrotation
											JOINT LeftHandPinky3
											{
												OFFSET 0.00000 2.15568 0.00000
												CHANNELS 3 Zrotation Xrotation Yrotation
												End site
												{
													OFFSET 0.00000 1.91616 0.00000
												}
											}
										}
									}
								}
							}
						}
					}
				}
			}
		}
	}
	JOINT RightUpLeg
	{
		OFFSET -10.06560 0.00000 0.00000
		CHANNELS 3 Zrotation Xrotation Yrotation
		JOINT RightLeg
		{
			OFFSET 0.00000 -42.98740 0.00000
			CHANNELS 3 Zrotation Xrotation Yrotation
			JOINT RightFoot
			{
				OFFSET 0.00000 -44.62500 0.00000
				CHANNELS 3 Zrotation Xrotation Yrotation
				JOINT RightForeFoot
				{
					OFFSET 0.00000 -3.74821 0.00000
					CHANNELS 3 Zrotation Xrotation Yrotation
					JOINT RightToeBase
					{
						OFFSET 0.00000 0.00000 14.67920
						CHANNELS 3 Zrotation Xrotation Yrotation
						End site
						{
							OFFSET 0.00000 0.00000 10.36040
						}
					}
				}
			}
		}
	}
	JOINT LeftUpLeg
	{
		OFFSET 10.06560 0.00000 0.00000
		CHANNELS 3 Zrotation Xrotation Yrotation
		JOINT LeftLeg
		{
			OFFSET 0.00000 -42.98740 0.00000
			CHANNELS 3 Zrotation Xrotation Yrotation
			JOINT LeftFoot
			{
				OFFSET 0.00000 -44.62500 0.00000
				CHANNELS 3 Zrotation Xrotation Yrotation
				JOINT LeftForeFoot
				{
					OFFSET 0.00000 -3.74821 0.00000
					CHANNELS 3 Zrotation Xrotation Yrotation
					JOINT LeftToeBase
					{
						OFFSET 0.00000 0.00000 14.67920
						CHANNELS 3 Zrotation Xrotation Yrotation
						End site
						{
							OFFSET 0.00000 0.00000 10.67280
						}
					}
				}
			}
		}
	}
}
MOTION
Frames: 3
Frame Time: 0.016667
1.186251755007943487e+01 9.195418941965296256e+01 -4.089383467292038432e+01 -5.899620237196023353e+00 1.196485465009915750e+01 -1.730866708405113741e+02 -7.284582972181734561e-01 8.055869508250168565e+00 -1.170146869517442179e+00 -1.415961430637179053e+00 6.920700101917899971e+00 4.855442297692758591e-01 -3.180441317189870443e-01 2.822848022356126751e+00 -3.002314709699826167e+00 5.792278164996197631e+00 1.221521848558622558e+00 -1.890001411568798417e+00 1.756645874926422879e+00 7.326818704314090880e+00 -3.212893905217102830e+00 -3.281153536714200847e-01 -4.496796426520113243e+00 -7.738852622775070245e+00 4.511003155849167001e-01 -1.807853641056182781e+01 -6.307184170287514213e-01 1.048841271867227647e+02 -1.782565574790287499e+01 4.383386079139870439e+00 5.122146479491609483e+01 8.337074805432585833e+00 -7.589830614474392334e+00 3.824420256915050942e-01 7.238319838273622508e+01 2.337655082265949602e+01 8.191004614084812729e+00 -7.267048008538566251e+00 8.960116102604658017e-06 -8.479317605241135425e+00 2.293415552578543171e+01 3.344726045538250148e+00 -3.190200569035553199e-15 4.188292813527622478e-17 1.165630634265025251e-15 -5.442913479918296977e-19 7.841859199801408936e-16 4.765933598819127942e-15 -1.692408564442711949e+01 3.388425557367039201e-15 6.899595338190169661e-15 -3.179262744505016813e-15 1.573243372524965165e-15 7.672424232521900916e-18 -3.182327623367974007e-15 -1.599681935837373720e-15 1.598428683954806694e-15 -7.438205916238924686e+00 4.559967642299823243e-15 4.460547380734925650e-15 -6.392213681946455038e-15 3.162075532431446326e-15 -3.950000375448745718e-15 1.233931202322198871e-17 -3.203380058078376634e-15 -8.198479665107663257e-16 1.219414308143543657e+01 3.315890709548905864e-15 1.111250631488376555e-15 3.255955763631792676e-16 3.184591021651417746e-15 -3.964652366027096712e-15 3.185196496346017593e-15 3.206867642319164301e-15 -1.199328345102692343e-15 5.021023131008258389e+01 -9.427067266846841377e-16 -2.833523696881202188e-15 3.218370622119471406e-15 3.243776076887295227e-15 1.558435904480676975e-15 -6.399107207379456604e-15 -3.162468800573416790e-15 -3.179326172902433281e-15 -1.026461620696415196e+02 -1.117926378801672627e+01 -2.615214811481414436e+00 -6.655910826601012786e+01 1.012261722432216793e+01 2.233030398005679373e+01 1.791396801144995266e+02 7.943896496282300745e+01 1.300525980959209562e+02 -5.513884755042869124e+00 1.176135551133370649e+00 1.079730285744295973e-04 1.730481001404433528e+01 3.739553923092603327e+01 -1.241269456118669900e+01 -1.542621735874843679e-15 -7.769505624834522921e-17 -1.609078759700012304e-15 -1.582310442260256284e-15 4.091908806962704157e-17 1.609881730392424305e-15 8.999517523199836333e+00 6.288844603802834756e-17 5.065842566685734052e-16 -3.201457548610695455e-15 -1.779326812507004341e-16 3.713499521907099028e-15 3.195046299436448415e-15 -5.924457118869503314e-16 3.413746515459959689e-15 -8.751136906406060234e+00 -7.558993691573679998e-17 -2.300938132100328172e-15 9.527231098731749702e-15 -5.480249894545772981e-16 1.508318300005820939e-15 1.273156986039721626e-14 -8.406807177300000433e-16 6.455248721047663842e-17 -3.362870668188715939e+01 9.103698311927323178e-16 -4.826243789896873214e-15 -9.573518445056241535e-15 -3.485995328340666878e-15 2.396465252643421752e-15 -3.145297649643070890e-15 2.938343442483744444e-15 -2.354153559515229151e-15 -6.753996612750930240e+01 3.957381325058864981e-15 -6.168082233902942407e-15 -8.078498504465843444e-16 -2.908583560933256541e-15 4.066245727952789729e-16 -8.172846812616321338e-16 -3.118904755475095609e-15 1.553330487288740782e-16 5.716871609419609257e-01 5.642145834651859815e+00 -6.712131239435701779e+00 9.617180463272489988e-02 1.118148097719123513e+01 5.674006707326562093e-02 -4.900221892169973614e+00 -1.302806210010185062e+01 -9.350628810828618853e+00 -4.792465740230132449e-18 -2.401833631174694705e-15 1.309004613909284751e-15 -3.490455108723407219e-16 1.504291477369089058e+01 -2.924129568527945838e-15 8.389322121764447360e+00 1.302308523503286075e+01 1.688923190917212480e+01 -2.523860383276981256e-01 2.878004337132417945e+01 -2.696847281134546748e-01 -8.140262402735132241e+00 -5.977770764307754447e+00 -5.225552555557118950e+00 1.298802916489093081e-16 4.735936166453095296e-15 -1.077444400225852068e-15 1.533809830101927929e-15 -8.753310684785848395e+00 -2.090555252127513154e-15
-1.230466907933173459e+01 9.203428226117050315e+01 -4.298212499416273857e+01 -7.724703675933635161e+00 1.241502113962322795e+01 1.769822492356600492e+02 -7.452077909469899453e+00 9.335850258588791917e+00 2.678647358741224616e-01 -1.948084385841134969e+00 6.594726542099259348e+00 8.681704684913790215e-01 -1.494168172439812148e+00 2.004213677389882431e+00 3.845871906863370882e+00 1.507644917993102185e+00 1.055906303732451867e+00 -1.027311531239220033e-01 -3.057099403435455720e+00 1.157147878767895932e+01 4.090985545679611590e+00 -1.235525257069397309e+00 -1.632744278990189368e+00 3.336056811774392727e-01 -1.677802442644309000e+00 -1.574762531440499558e+01 1.797337086642107895e-01 9.532754289491118982e+01 -8.969366776185136558e+00 7.643277039923765948e-01 8.494022584217481153e+01 6.050027237380601264e+01 -3.379741851006768627e+01 -1.258391892798093714e+00 8.534814153666692960e+01 7.629817683717363686e+00 -1.097372664266638154e-01 1.043929681147063526e+00 -1.907056303178704870e-04 1.033955959512302059e+01 8.737776993828097361e+00 -6.213527930542221966e-01 -1.590595600358472057e-15 5.384970579267581807e-18 1.572416440209688566e-15 -3.602675637921111007e-17 3.157579210068586002e-15 1.575995435934699597e-15 7.883128782412784119e+01 6.214696530387571726e-15 8.593858641955047223e-15 2.038245933835631522e-16 1.372538510824656983e-16 -5.599626809543477930e-20 -2.086682641057274709e-16 -1.177936648329650713e-15 1.804226515471522644e-17 9.964617974401156175e+01 8.639909256021188079e-15 1.005909360248272757e-14 -4.758771765634453506e-15 3.198285971402900063e-15 5.669174742569217085e-17 1.603642045515980694e-15 4.796862017870451884e-15 3.127868484595985635e-15 9.328653987652263879e+01 7.209376983407939227e-15 8.450197598319742411e-15 -1.213076925007812823e-15 3.784477462410869347e-16 -6.347433737308649558e-15 8.337050211272685289e-16 1.051799907712253449e-17 -5.295755458773283349e-18 1.032846613181137343e+02 6.459267296093209194e-15 6.291342598727214458e-15 3.157832615518165457e-15 -8.240264351531725815e-16 -6.323025121037077378e-15 -4.184822126733985730e-17 -1.591089014990662416e-15 -6.391623380851847994e-15 -9.423253313046012636e+01 -1.314671493691786175e+01 -1.052886837016675070e+00 -8.238732408059900081e+01 4.523422987003637274e+01 1.723007044084564399e+01 -3.322383926413198907e+00 8.543051284413348867e+01 -1.743782356414655510e+01 1.791180739957270873e+01 6.753547957522797240e+00 -2.052782222499363249e-02 -1.050573314496944377e+01 1.623298639852209746e+01 5.648615350864051088e+00 1.618384804758699088e-15 -6.422045512838159345e-15 1.582874821192200301e-15 3.143850388184700033e-15 -6.319955688518178665e-15 -3.181313155456428059e-15 -9.400978800303343519e+01 -5.657472963423051535e-15 -3.520534831972450407e-15 2.372605953713419978e-15 7.623284386191243168e-16 -6.317828629749243011e-15 8.281608644644810578e-16 -1.105345424000427583e-17 -3.220125799819243659e-15 -1.187488826477168544e+02 -5.956353099616832191e-15 -2.372008574088591843e-15 1.222576472248472571e-18 1.535057061629119872e-17 2.812685479553090163e-17 3.182012412899133414e-15 -3.164553591771510878e-15 3.136926195777190664e-15 -1.119489080898189854e+02 -4.424273197609968217e-15 -3.784195880470330499e-16 -4.762477993959120516e-15 -2.409587600167520541e-17 1.297003443913279953e-17 3.165313366503752631e-15 3.722913283394800521e-17 -3.194104072187294385e-15 -1.073354333739428768e+02 -2.947589797351584770e-15 1.126413199901342601e-15 -6.320840372080305397e-15 6.372622857519654153e-15 -1.270672092293970017e-14 -9.550988172118512535e-15 3.163653765834870977e-15 -9.560327565824956941e-15 -1.602974761286162675e+01 8.483931534782197303e+00 -1.743594770632257251e+01 -8.212261530147568767e-01 3.103401698108904938e+01 -6.402208400736668636e-01 3.338007178421234844e+00 -1.525911188382671213e+01 -5.779676863463367731e+00 -3.190152016492460552e-15 -6.370838881717090857e-15 2.858519555632673777e-15 1.984467804027132339e-16 1.127437355350179971e+00 -9.080639239315173393e-15 -6.819544210609231882e+00 1.379242949382657457e+00 2.451715745679604908e+01 -1.005719808441463137e-02 1.742600945972296245e+01 -7.713214776418930718e-02 1.566992619474010695e+00 -1.986210732910166588e+00 -5.311797986472155841e+00 -4.572933842445914944e-16 -1.607337766706493306e-15 6.279913670534312895e-16 -8.655773118052911687e-16 -1.994671455333865584e+00 -6.570148271853775395e-16
2.382694562485150769e+01 9.206712424578689991e+01 -8.368168373818056338e+00 -6.173528187942102008e+00 6.799499250226984870e+00 -1.466165104974994051e+02 -4.704142511885685884e+00 7.918169136999522628e+00 -1.273385215336790381e-02 -1.909383451009426524e+00 6.400682951172973922e+00 7.221630259235926053e-01 -1.127091123166837905e+00 1.847681498661323918e+00 -7.609945963902779997e-01 3.235512530249807561e+00 4.888644884301719395e-01 -1.175926693029419434e+00 -2.356729055506892934e+00 7.826629117734207775e+00 -2.280169438573627083e-01 -2.048592239664933423e+00 -4.613069731764055881e+00 -5.194526402270549958e+00 -1.480630283910402634e+00 -1.872241181494943518e+01 -2.792807579250643490e-01 9.931817777651149015e+01 -1.394280659643694165e+01 2.425886592996258084e+00 4.278717241696828921e+01 2.956897823804040826e+01 -3.974325350183585570e+00 -1.826859130268865954e+02 3.897996825837505241e+01 -1.186156494038296216e+02 2.559002355950664764e+01 -3.327280294251227843e+00 2.637252979758653634e-04 8.918674615214602142e+00 2.253436029772242222e+00 -6.257818123800680254e-01 -1.616702018139705110e-15 1.716595901527013315e-15 -1.784794405344073076e-17 -4.769159202649151627e-15 -9.751975558414208304e-17 -3.200781252881182015e-15 7.709775769174926552e+01 8.265571460201593067e-15 1.505591959642795300e-14 -4.652543108628769529e-15 3.496306965881350866e-15 -2.436246589302765604e-15 -2.447245308472166280e-15 -8.464413641450294005e-17 -6.675070708681075138e-17 9.505701075081154272e+01 1.217640375388864144e-14 1.685232328228237366e-14 4.520658694774218362e-15 6.358664248117758051e-15 1.667056752485763337e-15 1.967510275844019091e-15 -6.436849884171590029e-18 -7.986193015317753920e-15 8.459736447425785855e+01 9.431868560536528191e-15 1.463698994474598959e-14 -4.769784720410162617e-15 -9.667151728714642463e-15 -7.183028582630891498e-16 -7.971037648815254651e-15 -9.591009649871592068e-15 3.976824989785603866e-15 8.374551615803454752e+01 1.017967998553670840e-14 1.094791116723832796e-14 3.259979161231814908e-15 6.214512139325442369e-15 -6.159482524720370889e-15 -7.961098577210620368e-15 3.144574977965757705e-15 -1.066600043642179141e-17 -9.763547066665444163e+01 -1.267600218216998798e+01 -1.596943090027945988e+00 -5.896142165883775021e+01 4.076965587469592833e+01 8.572401351550158921e+00 1.826614650414566086e+02 6.287567065858119975e+01 1.463994598239306981e+02 -3.375607350484965963e+01 5.396755269962032031e+00 -4.499978101386251247e-04 1.944922510974288699e+00 3.293141979378581397e+01 -1.460302800891784436e+00 9.432037027105366285e-15 -6.273334935663125566e-15 -3.195307465401749811e-15 3.263632766776650874e-15 3.097188020825687008e-15 6.740030304766848594e-17 -7.186120034983051141e+01 2.917939158202746476e-15 2.375877310345220870e-15 -7.060949896725707092e-15 -9.397564999090620369e-17 8.563105952684791419e-16 -1.040295434481851068e-14 6.423335747513195613e-15 1.561377170539161243e-15 -9.190749632670606672e+01 2.149540427861291333e-15 4.175145849842484957e-15 -7.496399815961184538e-15 -1.035236899936715657e-17 4.587204557263608402e-16 3.197662247945516264e-15 3.202043625914123734e-15 -8.436274269490387708e-16 -8.320907704531413174e+01 5.178492710104145186e-16 3.415138306779632754e-15 -5.811880771688739679e-17 -3.089062835433166708e-15 -2.360490962196939409e-15 1.234428170185620310e-15 -2.769362647857725461e-17 -8.011022584791177167e-16 -7.174378665586786497e+01 -1.257994089789843323e-16 3.007617706467854163e-15 5.609557772836454293e-15 6.422643080769978741e-15 7.644634986819728979e-15 8.300404731891528782e-15 -3.247709447174081499e-15 5.053707766610991468e-15 -1.888063180754453896e+00 1.230627892071539264e+01 -1.236459607779015002e+01 -5.370818608876966049e-01 1.180325720789141997e+01 -9.561367026206135655e-01 -4.997278936310582509e+00 -1.567782544599326222e+01 -1.114450451061331826e+01 -2.059482674450293521e-16 1.607862259564675439e-15 7.381804482128751009e-18 -7.210572909230328539e-16 1.255543988215711870e+01 3.147277485236153592e-15 1.739744242255705675e+00 2.497818043213255734e-01 1.813109075757743582e+01 4.497669431743211987e-01 2.386309333246249054e+01 1.449002202859973387e+00 -2.320782233283499973e+00 -4.253677212763727233e+00 -4.758482776413453408e+00 1.292769299740533619e-15 4.921359877521910202e-16 3.351860135308563312e-15 5.899246256525554879e-16 -5.246859436229037499e+00 3.093610609154383789e-15
